<?xml version="1.0" encoding="UTF-8" standalone="no"?>
<svg
   xmlns:dc="http://purl.org/dc/elements/1.1/"
   xmlns:cc="http://creativecommons.org/ns#"
   xmlns:rdf="http://www.w3.org/1999/02/22-rdf-syntax-ns#"
   xmlns:svg="http://www.w3.org/2000/svg"
   xmlns="http://www.w3.org/2000/svg"
   xmlns:xlink="http://www.w3.org/1999/xlink"
   id="svg8"
   version="1.1"
   viewBox="0 0 396.87499 317.50001"
   height="1200"
   width="1500">
  <defs
     id="defs2">
    <g
       id="s5">
      <g
         id="s1">
        <g
           id="p4">
          <g
             id="p2">
            <path
               style="fill:#ffffff"
               d="M 0,0.5 V 0 h 0.3 z"
               transform="matrix(0.05858508,-0.01903545,0.01903545,0.05858508,-0.00951772,0.00150746)"
               id="p1" />
            <use
               height="100%"
               width="100%"
               y="0"
               x="0"
               xlink:href="#p1"
               transform="scale(-1,1)"
               id="use8" />
          </g>
          <use
             height="100%"
             width="100%"
             y="0"
             x="0"
             xlink:href="#p2"
             transform="rotate(72)"
             id="use11" />
        </g>
        <use
           height="100%"
           width="100%"
           y="0"
           x="0"
           xlink:href="#p2"
           transform="rotate(-72)"
           id="use14" />
        <use
           height="100%"
           width="100%"
           y="0"
           x="0"
           xlink:href="#p4"
           transform="rotate(144)"
           id="use16" />
      </g>
      <use
         height="100%"
         width="100%"
         y="0"
         xlink:href="#s1"
         x="-0.252"
         id="use19" />
      <use
         height="100%"
         width="100%"
         y="0"
         xlink:href="#s1"
         x="-0.126"
         id="use21" />
      <use
         height="100%"
         width="100%"
         y="0"
         xlink:href="#s1"
         x="0.126"
         id="use23" />
      <use
         height="100%"
         width="100%"
         y="0"
         xlink:href="#s1"
         x="0.252"
         id="use25" />
    </g>
  </defs>
  <metadata
     id="metadata5">
    <rdf:RDF>
      <cc:Work
         rdf:about="">
        <dc:format>image/svg+xml</dc:format>
        <dc:type
           rdf:resource="http://purl.org/dc/dcmitype/StillImage" />
        <dc:title></dc:title>
      </cc:Work>
    </rdf:RDF>
  </metadata>
  <g
     transform="translate(0,20.500017)"
     id="layer1">
    <path
       id="path1140"
       d="m 47.223994,58.610921 v 42.844049 42.84361 H 198.43752 349.65101 v -6.04859 -6.04857 h -90.72774 -90.72819 v -6.30036 -6.30081 h 90.72819 90.72774 v -5.79635 -5.79635 h -90.72774 -90.72819 v -6.3008 -6.30035 h 90.72819 90.72774 v -6.048587 -6.04857 h -90.72774 -90.72819 v -6.300824 -6.300341 h 90.72819 90.72774 v -6.048587 -6.04857 H 198.43752 Z m 10.285675,3.43365 1.492597,2.991204 3.310071,0.466508 -2.383516,2.343732 0.578987,3.292018 -2.965276,-1.542571 -2.952323,1.568032 0.551219,-3.297129 -2.403877,-2.322883 3.305925,-0.494752 z m 19.904903,0 1.492597,2.991204 3.31007,0.466508 -2.383516,2.343732 0.578997,3.292018 -2.965295,-1.542571 -2.952314,1.568032 0.55122,-3.297129 -2.403886,-2.322883 3.305924,-0.494752 z m 20.378834,0 1.492597,2.991204 3.310087,0.466508 -2.38351,2.343732 0.57897,3.292018 -2.965272,-1.542571 -2.951853,1.568032 0.55074,-3.297129 -2.403867,-2.322883 3.305887,-0.494752 z m 19.904914,0 1.4926,2.991204 3.31007,0.466508 -2.38352,2.343732 0.57899,3.292018 -2.96527,-1.542571 -2.95187,1.568032 0.55076,-3.297129 -2.40388,-2.322883 3.30592,-0.494752 z m 19.90537,0 1.49213,2.991204 3.31007,0.466508 -2.38351,2.343732 0.57897,3.292018 -2.96525,-1.542571 -2.95187,1.568032 0.55076,-3.297129 -2.40387,-2.322883 3.3059,-0.494752 z m 19.90492,0 1.49212,2.991204 3.31007,0.466508 -2.38351,2.343732 0.57945,3.292018 -2.96575,-1.542571 -2.95185,1.568032 0.55076,-3.297129 -2.40389,-2.322883 3.30592,-0.494752 z m -90.046499,8.530668 1.492597,2.991204 3.310089,0.466525 -2.383516,2.343715 0.578978,3.292018 -2.965276,-1.542571 -2.952314,1.568034 0.551201,-3.297115 -2.403877,-2.322899 3.305916,-0.49475 z m 19.904921,0 1.492597,2.991204 3.310071,0.466525 -2.383516,2.343715 0.578978,3.292018 -2.965258,-1.542571 -2.951872,1.568034 0.55075,-3.297115 -2.403858,-2.322899 3.305887,-0.49475 z m 20.378838,0 1.4926,2.991204 3.31006,0.466525 -2.38351,2.343715 0.579,3.292018 -2.9653,-1.542571 -2.95185,1.568034 0.55075,-3.297115 -2.40388,-2.322899 3.30593,-0.49475 z m 19.90489,0 1.4926,2.991204 3.31009,0.466525 -2.38353,2.343715 0.57899,3.292018 -2.96527,-1.542571 -2.95186,1.568034 0.55074,-3.297115 -2.40388,-2.322899 3.30592,-0.49475 z m 19.90539,0 1.49211,2.991204 3.3101,0.466525 -2.38352,2.343715 0.57945,3.292018 -2.96573,-1.542571 -2.95187,1.568034 0.55075,-3.297115 -2.40388,-2.322899 3.30591,-0.49475 z m -90.046481,8.530685 1.492597,2.991188 3.310071,0.466524 -2.383516,2.343716 0.578987,3.292035 -2.965276,-1.542571 -2.952323,1.568016 0.551219,-3.297114 -2.403877,-2.322883 3.305925,-0.494751 z m 19.904903,0 1.492597,2.991188 3.31007,0.466524 -2.383516,2.343716 0.578997,3.292035 -2.965295,-1.542571 -2.952314,1.568016 0.55122,-3.297114 -2.403886,-2.322883 3.305924,-0.494751 z m 20.378834,0 1.492597,2.991188 3.310087,0.466524 -2.38351,2.343716 0.57898,3.292035 -2.965282,-1.542571 -2.951853,1.568016 0.55074,-3.297114 -2.403867,-2.322883 3.305887,-0.494751 z m 19.904914,0 1.4926,2.991188 3.31007,0.466524 -2.38352,2.343716 0.57899,3.292035 -2.96527,-1.542571 -2.95187,1.568016 0.55076,-3.297114 -2.40388,-2.322883 3.30592,-0.494751 z m 19.90537,0 1.49213,2.991188 3.31007,0.466524 -2.38351,2.343716 0.57897,3.292035 -2.96525,-1.542571 -2.95187,1.568016 0.55076,-3.297114 -2.40387,-2.322883 3.3059,-0.494751 z m 19.90492,0 1.49212,2.991188 3.31007,0.466524 -2.38351,2.343716 0.57945,3.292035 -2.96575,-1.542571 -2.95185,1.568016 0.55076,-3.297114 -2.40389,-2.322883 3.30592,-0.494751 z m -90.046499,8.530668 1.492597,2.991205 3.310089,0.466524 -2.383516,2.343716 0.578978,3.292018 -2.965276,-1.542571 -2.952314,1.568033 0.551201,-3.297131 -2.403877,-2.322882 3.305916,-0.494751 z m 19.904921,0 1.492597,2.991205 3.310071,0.466524 -2.383516,2.343716 0.578978,3.292018 -2.965258,-1.542571 -2.951872,1.568033 0.55075,-3.297131 -2.403858,-2.322882 3.305887,-0.494751 z m 20.378838,0 1.4926,2.991205 3.31006,0.466524 -2.38351,2.343716 0.579,3.292018 -2.9653,-1.542571 -2.95185,1.568033 0.55075,-3.297131 -2.40388,-2.322882 3.30593,-0.494751 z m 19.90489,0 1.4926,2.991205 3.31009,0.466524 -2.38353,2.343716 0.57899,3.292018 -2.96527,-1.542571 -2.95186,1.568033 0.55074,-3.297131 -2.40388,-2.322882 3.30592,-0.494751 z m 19.90539,0 1.49211,2.991205 3.3101,0.466524 -2.38352,2.343716 0.57945,3.292018 -2.96573,-1.542571 -2.95187,1.568033 0.55075,-3.297131 -2.40388,-2.322882 3.30591,-0.494751 z m -90.046481,9.004604 1.492597,2.991205 3.310071,0.466509 -2.383516,2.34372 0.578987,3.29203 -2.965276,-1.54258 -2.952323,1.56803 0.551219,-3.29711 -2.403877,-2.32289 3.305925,-0.494754 z m 19.904903,0 1.492597,2.991205 3.31007,0.466509 -2.383516,2.34372 0.578997,3.29203 -2.965295,-1.54258 -2.952314,1.56803 0.55122,-3.29711 -2.403886,-2.32289 3.305924,-0.494754 z m 20.378834,0 1.492597,2.991205 3.310087,0.466509 -2.38351,2.34372 0.57898,3.29203 -2.965282,-1.54258 -2.951853,1.56803 0.55074,-3.29711 -2.403867,-2.32289 3.305887,-0.494754 z m 19.904914,0 1.4926,2.991205 3.31007,0.466509 -2.38352,2.34372 0.57899,3.29203 -2.96527,-1.54258 -2.95187,1.56803 0.55076,-3.29711 -2.40388,-2.32289 3.30592,-0.494754 z m 19.90537,0 1.49213,2.991205 3.31007,0.466509 -2.38351,2.34372 0.57897,3.29203 -2.96525,-1.54258 -2.95187,1.56803 0.55076,-3.29711 -2.40387,-2.32289 3.3059,-0.494754 z m 19.90492,0 1.49212,2.991205 3.31007,0.466509 -2.38351,2.34372 0.57945,3.29203 -2.96575,-1.54258 -2.95185,1.56803 0.55076,-3.29711 -2.40389,-2.32289 3.30592,-0.494754 z m -90.046499,8.530674 1.492597,2.9912 3.310089,0.46651 -2.383516,2.34372 0.578978,3.29203 -2.965276,-1.54257 -2.952314,1.56804 0.551201,-3.29714 -2.403877,-2.32288 3.305916,-0.49475 z m 19.904921,0 1.492597,2.9912 3.310071,0.46651 -2.383516,2.34372 0.578978,3.29203 -2.965258,-1.54257 -2.951872,1.56804 0.55075,-3.29714 -2.403858,-2.32288 3.305887,-0.49475 z m 20.378838,0 1.4926,2.9912 3.31006,0.46651 -2.38351,2.34372 0.579,3.29203 -2.9653,-1.54257 -2.95185,1.56804 0.55075,-3.29714 -2.40388,-2.32288 3.30593,-0.49475 z m 19.90489,0 1.4926,2.9912 3.31009,0.46651 -2.38353,2.34372 0.57899,3.29203 -2.96527,-1.54257 -2.95186,1.56804 0.55074,-3.29714 -2.40388,-2.32288 3.30592,-0.49475 z m 19.90539,0 1.49211,2.9912 3.3101,0.46651 -2.38352,2.34372 0.57945,3.29203 -2.96573,-1.54257 -2.95187,1.56804 0.55075,-3.29714 -2.40388,-2.32288 3.30591,-0.49475 z m -90.046481,8.53068 1.492597,2.99119 3.310071,0.46653 -2.383516,2.34371 0.578987,3.29204 -2.965276,-1.54259 -2.952323,1.56803 0.551219,-3.29712 -2.403877,-2.32289 3.305925,-0.49475 z m 19.904903,0 1.492597,2.99119 3.31007,0.46653 -2.383516,2.34371 0.578997,3.29204 -2.965295,-1.54259 -2.952314,1.56803 0.55122,-3.29712 -2.403886,-2.32289 3.305924,-0.49475 z m 20.378834,0 1.492597,2.99119 3.310087,0.46653 -2.38351,2.34371 0.57898,3.29204 -2.965282,-1.54259 -2.951853,1.56803 0.55074,-3.29712 -2.403867,-2.32289 3.305887,-0.49475 z m 19.904914,0 1.4926,2.99119 3.31007,0.46653 -2.38352,2.34371 0.57899,3.29204 -2.96527,-1.54259 -2.95187,1.56803 0.55076,-3.29712 -2.40388,-2.32289 3.30592,-0.49475 z m 19.90537,0 1.49213,2.99119 3.31007,0.46653 -2.38351,2.34371 0.57897,3.29204 -2.96525,-1.54259 -2.95187,1.56803 0.55076,-3.29712 -2.40387,-2.32289 3.3059,-0.49475 z m 19.90492,0 1.49212,2.99119 3.31007,0.46653 -2.38351,2.34371 0.57945,3.29204 -2.96575,-1.54259 -2.95185,1.56803 0.55076,-3.29712 -2.40389,-2.32289 3.30592,-0.49475 z m -90.046499,8.53067 1.492597,2.9912 3.310089,0.46652 -2.383516,2.34371 0.578978,3.29204 -2.965276,-1.54259 -2.952314,1.56804 0.551201,-3.29712 -2.403877,-2.32289 3.305916,-0.49474 z m 19.904921,0 1.492597,2.9912 3.310071,0.46652 -2.383516,2.34371 0.578978,3.29204 -2.965258,-1.54259 -2.951872,1.56804 0.55075,-3.29712 -2.403858,-2.32289 3.305887,-0.49474 z m 20.378838,0 1.4926,2.9912 3.31006,0.46652 -2.38351,2.34371 0.579,3.29204 -2.9653,-1.54259 -2.95185,1.56804 0.55075,-3.29712 -2.40388,-2.32289 3.30593,-0.49474 z m 19.90489,0 1.4926,2.9912 3.31009,0.46652 -2.38353,2.34371 0.57899,3.29204 -2.96527,-1.54259 -2.95186,1.56804 0.55074,-3.29712 -2.40388,-2.32289 3.30592,-0.49474 z m 19.90539,0 1.49211,2.9912 3.3101,0.46652 -2.38352,2.34371 0.57945,3.29204 -2.96573,-1.54259 -2.95187,1.56804 0.55075,-3.29712 -2.40388,-2.32289 3.30591,-0.49474 z m -90.046481,8.53067 1.492597,2.99121 3.310071,0.46652 -2.383516,2.34372 0.578987,3.29201 -2.965276,-1.54256 -2.952323,1.56803 0.551219,-3.29714 -2.403877,-2.32287 3.305925,-0.49476 z m 19.904903,0 1.492597,2.99121 3.31007,0.46652 -2.383516,2.34372 0.578997,3.29201 -2.965295,-1.54256 -2.952314,1.56803 0.55122,-3.29714 -2.403886,-2.32287 3.305924,-0.49476 z m 20.378834,0 1.492597,2.99121 3.310087,0.46652 -2.38351,2.34372 0.57898,3.29201 -2.965282,-1.54256 -2.951853,1.56803 0.55074,-3.29714 -2.403867,-2.32287 3.305887,-0.49476 z m 19.904914,0 1.4926,2.99121 3.31007,0.46652 -2.38352,2.34372 0.57899,3.29201 -2.96527,-1.54256 -2.95187,1.56803 0.55076,-3.29714 -2.40388,-2.32287 3.30592,-0.49476 z m 19.90537,0 1.49213,2.99121 3.31007,0.46652 -2.38351,2.34372 0.57897,3.29201 -2.96525,-1.54256 -2.95187,1.56803 0.55076,-3.29714 -2.40387,-2.32287 3.3059,-0.49476 z m 19.90492,0 1.49212,2.99121 3.31007,0.46652 -2.38351,2.34372 0.57945,3.29201 -2.96575,-1.54256 -2.95185,1.56803 0.55076,-3.29714 -2.40389,-2.32287 3.30592,-0.49476 z M 47.223994,156.89972 v 5.79635 5.7968 H 198.43752 349.65101 v -5.7968 -5.79635 H 198.43752 Z m 0,24.19432 v 6.04857 6.0486 H 198.43752 349.65101 v -6.0486 -6.04857 H 198.43752 Z m 0,24.69832 v 6.04812 6.04857 H 198.43752 349.65101 v -6.04857 -6.04812 H 198.43752 Z"
       style="fill:#81613C;stroke-width:0.50404507" />
  </g>
</svg>
